<svg xmlns="http://www.w3.org/2000/svg" height="800" width="1200" version="1.1" id="Layer_1" viewBox="-160.383 -60.035 1389.986 360.21" style="background-color: #333"><defs id="defs4"><style id="style2">.cls-1{fill:#fff}</style></defs><path id="path8" d="M385.8 60.09h-24.21l-45.25 50.3h-5.58v-50.3h-13.68l-4.32 4.32V175l4.32 4.32h13.68v-51h4.95l45.75 51h24.18L331.91 120z" class="cls-1"/><path id="path10" d="M416.72 179.37l10.66-25.73h57.41l10.63 25.73h19.48L467 63.67l-5.32-3.56h-11.1l-5.32 3.55-48 115.71zm39.41-95.11l21.23 51.38h-42.52z" class="cls-1"/><path id="path12" d="M603.37 60.14H516l-4.32 4.32v13.68h37.08v101.22h18V78.14H599l4.32-4.32z" class="cls-1"/><path id="path14" d="M753.79 179.37v-47.2H770l32 47.2h21.75l-33-48.71a36 36 0 00-10.23-70.54h-40.41l-4.32 4.32v114.93zm0-101.3h26.63a18.05 18.05 0 11.2 36.1h-26.83z" class="cls-1"/><path id="path16" d="M865.62 179.37v-47.2h16.2l32 47.2h21.75l-33-48.71a36 36 0 00-10.23-70.54h-40.4l-4.32 4.32v114.93zm0-101.3h26.64a18.05 18.05 0 01.2 36.1h-26.84z" class="cls-1"/><path id="path18" d="M971.05 179.37l10.66-25.73h57.41l10.63 25.73h19.47l-47.86-115.7-5.36-3.56h-11.13l-5.32 3.55-48 115.71zm39.41-95.11l21.23 51.38h-42.52z" class="cls-1"/><path id="path20" d="M704.58 78.14v-18h-70l-4.32 4.32V175l4.32 4.32h70v-18h-56.31V129h40.3v-18h-40.3V78.14z" class="cls-1"/><path id="path22" d="M68.94 228.23h-2.12l-2.72-2.73V14.7l2.72-2.7h2.12l2.73 2.73V225.5z" class="cls-1"/><path id="path24" d="M36.84 203.74h-2.12L32 201V39.49l2.73-2.73h2.12l2.73 2.73V201z" class="cls-1"/><path id="path26" d="M4.84 151.73H2.73L0 149V92.45L2.5 90h2.57l2.5 2.5V149z" class="cls-1"/><path id="path28" d="M201.6 213.89h-3.85l-81.56-81.56a16.38 16.38 0 010-23.14l82.11-82.11h3.85l1.5 1.5v3.85l-82.11 82.11a8.79 8.79 0 000 12.43l81.56 81.56v3.85z" class="cls-1"/><path id="path30" d="M225.27 186.81h-3.85L167 132.35a16.38 16.38 0 010-23.14l54.36-54.36h3.85l1.5 1.5v3.85l-54.41 54.37a8.79 8.79 0 000 12.43l54.46 54.46v3.85z" class="cls-1"/><path id="path32" d="M239.79 150.17h-3.85l-17.72-17.72a16.38 16.38 0 010-23.14l17.68-17.67h3.85l1.5 1.5V97l-17.68 17.68a8.79 8.79 0 000 12.43l17.72 17.72v3.85z" class="cls-1"/><path id="path34" d="M108.07 71.79a12.21 12.21 0 01-4.47-.86 12.4 12.4 0 01-7.69-11.59V2.73L98.63 0h2.12l2.73 2.73v56.94a4.52 4.52 0 007.72 3.2L166 8h3.85l1.5 1.5v3.85l-54.81 54.87a11.93 11.93 0 01-8.47 3.57z" class="cls-1"/><path id="path36" d="M101.38 240.14h-2.12l-2.73-2.73v-54.89a12.09 12.09 0 0120.64-8.52l53.68 53.7v3.85l-1.5 1.5h-3.85l-53.68-53.7a4.52 4.52 0 00-7.71 3.2v54.89z" class="cls-1"/></svg>